<?xml version="1.0" standalone="no"?>
<!DOCTYPE svg PUBLIC "-//W3C//DTD SVG 20010904//EN"
 "http://www.w3.org/TR/2001/REC-SVG-20010904/DTD/svg10.dtd">
<svg version="1.0" xmlns="http://www.w3.org/2000/svg"
 width="1280.000000pt" height="1280.000000pt" viewBox="0 0 1280.000000 1280.000000"
 preserveAspectRatio="xMidYMid meet">
<metadata>
Created by potrace 1.15, written by Peter Selinger 2001-2017
</metadata>
<g transform="translate(0.000000,1280.000000) scale(0.100000,-0.100000)"
fill="#ff5722" stroke="none">
<path d="M6070 11684 c-540 -46 -900 -117 -1340 -264 -1029 -344 -1916 -984
-2567 -1854 -549 -732 -896 -1589 -1012 -2497 -34 -261 -44 -472 -38 -784 10
-536 88 -1005 247 -1500 395 -1224 1220 -2261 2330 -2929 584 -352 1287 -601
1960 -695 291 -41 379 -46 750 -46 370 0 451 5 747 46 1374 190 2646 945 3490
2073 507 676 838 1449 983 2291 81 475 92 1055 29 1544 -261 2035 -1679 3741
-3634 4371 -332 107 -655 176 -1035 221 -138 16 -248 21 -520 24 -190 1 -365
1 -390 -1z m573 -814 c1020 -62 1949 -442 2707 -1107 1357 -1192 1866 -3069
1296 -4778 -224 -671 -576 -1236 -1085 -1746 -505 -504 -1057 -850 -1724
-1078 -925 -316 -1949 -316 -2874 0 -668 229 -1218 573 -1723 1079 -276 276
-471 520 -659 828 -733 1198 -860 2666 -344 3977 433 1099 1317 2007 2409
2473 625 268 1331 392 1997 352z"/>
<path d="M3065 8621 c-47 -12 -72 -28 -101 -67 -34 -44 -43 -122 -21 -176 15
-35 3195 -5551 3282 -5693 53 -86 97 -115 175 -115 78 0 122 29 175 115 56 91
3248 5622 3275 5674 39 77 17 183 -48 230 -36 25 -98 40 -141 33 -39 -5 -2 17
-1798 -1086 l-1412 -867 -1583 942 c-871 518 -1610 957 -1643 975 -66 36 -114
47 -160 35z"/>
</g>
</svg>
